<svg xmlns="http://www.w3.org/2000/svg" width="95" height="80"><defs><clipPath id="a"><path d="M0 60V0h71.328v60H0z" clip-rule="evenodd"/></clipPath></defs><g clip-path="url(#a)" transform="scale(1.3333)"><path fill="#FF6C61" d="M48.934 60H11.067C4.955 60 0 55.045 0 48.933V11.066C0 4.955 4.955 0 11.067 0h37.867C55.044 0 60 4.955 60 11.066v37.867C60 55.045 55.045 60 48.934 60"/><path fill="#FFB8B6" d="m43.372 45.943-.078-.001a3.75 3.75 0 0 1-2.774-1.313L27.65 29.563a3.751 3.751 0 0 1 .415-5.288 3.752 3.752 0 0 1 5.288.416l10.137 11.866L64.83 13.584a3.75 3.75 0 0 1 5.495 5.104L46.118 44.745a3.75 3.75 0 0 1-2.747 1.198"/></g></svg>