<svg xmlns="http://www.w3.org/2000/svg" xmlns:xlink="http://www.w3.org/1999/xlink" width="133.23" height="111.588" viewBox="0 0 133.23 111.588">
  <defs>
    <clipPath id="clip-path">
      <rect id="사각형_1" data-name="사각형 1" width="133.23" height="111.588" transform="translate(0 0)" fill="none"/>
    </clipPath>
  </defs>
  <g id="그룹_2" data-name="그룹 2" transform="translate(0 0)">
    <g id="그룹_1" data-name="그룹 1" clip-path="url(#clip-path)">
      <path id="패스_1" data-name="패스 1" d="M118.488,79.56,132.066,62.1a5.522,5.522,0,0,0-1.9-8.335L79.51,28.592a5.523,5.523,0,0,0-6.817,1.554L58.866,47.931A5.526,5.526,0,0,1,55.839,49.9L15.429,59.948l-.069-.034-.05.063-.119.031.069.034L1.682,77.5a5.521,5.521,0,0,0,1.9,8.335l50.654,25.171a5.523,5.523,0,0,0,6.817-1.556L74.883,91.672a5.519,5.519,0,0,1,3.026-1.97l40.41-10.049.07.034.049-.063.12-.03Z" fill="#fff"/>
      <path id="패스_2" data-name="패스 2" d="M66.871,89.69a3.973,3.973,0,0,1-1.777-.419L23.869,68.786a4,4,0,1,1,3.561-7.164L68.653,82.107a4,4,0,0,1-1.782,7.583" fill="#f9edbd"/>
      <path id="패스_3" data-name="패스 3" d="M104.391,76.557a3.985,3.985,0,0,1-1.778-.419L65.166,57.529a4,4,0,1,1,3.56-7.163l37.447,18.608a4,4,0,0,1-1.782,7.583" fill="#f9edbd"/>
      <path id="패스_4" data-name="패스 4" d="M58.7,29.349c0,12.708-18.039,37.066-25.832,47a4.468,4.468,0,0,1-7.034,0C18.039,66.415,0,42.057,0,29.349a29.349,29.349,0,0,1,58.7,0" fill="#ffa943"/>
      <path id="패스_5" data-name="패스 5" d="M46.685,29.339A17.336,17.336,0,1,1,29.349,12,17.336,17.336,0,0,1,46.685,29.339" fill="#fff"/>
    </g>
  </g>
</svg>
