<?xml version="1.0" encoding="utf-8"?>
<!-- Generator: Adobe Illustrator 13.0.0, SVG Export Plug-In . SVG Version: 6.00 Build 14948)  -->
<!DOCTYPE svg PUBLIC "-//W3C//DTD SVG 1.1//EN" "http://www.w3.org/Graphics/SVG/1.1/DTD/svg11.dtd">
<svg version="1.1" id="Layer_1" xmlns="http://www.w3.org/2000/svg" xmlns:xlink="http://www.w3.org/1999/xlink" x="0px" y="0px"
	 width="96.232px" height="95.668px" viewBox="0 0 96.232 95.668" enable-background="new 0 0 96.232 95.668" xml:space="preserve">
<g>
	<defs>
		<rect id="SVGID_1_" y="0" width="96.232" height="95.668"/>
	</defs>
	<clipPath id="SVGID_2_">
		<use xlink:href="#SVGID_1_"  overflow="visible"/>
	</clipPath>
	<path clip-path="url(#SVGID_2_)" fill="#FF6C61" d="M86.632,95.668H9.6c-5.302,0-9.6-4.298-9.6-9.6V35.669
		c0-5.302,4.298-9.6,9.6-9.6h77.032c5.302,0,9.6,4.298,9.6,9.6v50.399C96.231,91.371,91.934,95.668,86.632,95.668"/>
	<path clip-path="url(#SVGID_2_)" fill="#FF6C61" d="M40.41,34.727c-1.428,0-2.845-0.608-3.834-1.788L15.849,8.212
		c-1.773-2.116-1.496-5.269,0.621-7.044c2.115-1.774,5.269-1.496,7.044,0.62L44.24,26.515c1.774,2.116,1.496,5.27-0.621,7.044
		C42.683,34.344,41.543,34.727,40.41,34.727"/>
	<path clip-path="url(#SVGID_2_)" fill="#FF6C61" d="M56.055,34.727c-1.132,0-2.27-0.382-3.206-1.165
		c-2.117-1.773-2.397-4.926-0.627-7.043L72.715,2.026c1.772-2.118,4.926-2.399,7.044-0.627c2.117,1.772,2.398,4.926,0.626,7.043
		L59.893,32.935C58.904,34.118,57.484,34.727,56.055,34.727"/>
	<path clip-path="url(#SVGID_2_)" fill="#FFD5D2" d="M62.602,58.314L42.893,44.63c-2.063-1.432-4.885,0.044-4.885,2.555v27.368
		c0,2.511,2.822,3.986,4.885,2.555l19.709-13.684C64.384,62.187,64.384,59.551,62.602,58.314"/>
</g>
</svg>
