<svg xmlns="http://www.w3.org/2000/svg" xmlns:xlink="http://www.w3.org/1999/xlink" xml:space="preserve" width="86" height="98.119"><defs><path id="a" d="M0 0h86v98.119H0z"/></defs><clipPath id="b"><use xlink:href="#a" overflow="visible"/></clipPath><path fill="#FF6C61" d="M56.007 0H29.993C13.428 0 0 13.428 0 29.993v21.236c0 16.564 13.428 29.992 29.993 29.992h7.159v13.932c0 2.901 3.742 4.071 5.395 1.686l10.824-15.617h2.636C72.572 81.222 86 67.794 86 51.229V29.993C86 13.428 72.572 0 56.007 0" clip-path="url(#b)"/><path fill="#FFB8B6" d="M37.806 54.622h-12.46a5 5 0 1 1 0-10h12.46a5 5 0 1 1 0 10M60.862 37.112H25.138a5 5 0 1 1 0-10h35.724a5 5 0 1 1 0 10" clip-path="url(#b)"/></svg>