<?xml version="1.0" encoding="utf-8"?>
<!-- Generator: Adobe Illustrator 13.0.0, SVG Export Plug-In  -->
<!DOCTYPE svg PUBLIC "-//W3C//DTD SVG 1.1//EN" "http://www.w3.org/Graphics/SVG/1.1/DTD/svg11.dtd" [
	<!ENTITY ns_flows "http://ns.adobe.com/Flows/1.0/">
]>
<svg version="1.1"
	 xmlns="http://www.w3.org/2000/svg" xmlns:xlink="http://www.w3.org/1999/xlink" xmlns:a="http://ns.adobe.com/AdobeSVGViewerExtensions/3.0/"
	 x="0px" y="0px" width="19px" height="19px" viewBox="-0.999 -0.2 19 19" enable-background="new -0.999 -0.2 19 19"
	 xml:space="preserve">
<defs>
</defs>
<g>
	<defs>
		<rect id="SVGID_1_" x="0.001" width="17.4" height="18.8"/>
	</defs>
	<clipPath id="SVGID_2_">
		<use xlink:href="#SVGID_1_"  overflow="visible"/>
	</clipPath>
	<g clip-path="url(#SVGID_2_)">
		<defs>
			<rect id="SVGID_3_" width="17.4" height="18.8"/>
		</defs>
		<clipPath id="SVGID_4_">
			<use xlink:href="#SVGID_3_"  overflow="visible"/>
		</clipPath>
		<defs>
			<filter id="Adobe_OpacityMaskFilter" filterUnits="userSpaceOnUse" x="0" y="0" width="9.4" height="18.8">
				<feColorMatrix  type="matrix" values="1 0 0 0 0  0 1 0 0 0  0 0 1 0 0  0 0 0 1 0"/>
			</filter>
		</defs>
		<mask maskUnits="userSpaceOnUse" x="0" y="0" width="9.4" height="18.8" id="SVGID_5_">
			<g filter="url(#Adobe_OpacityMaskFilter)">
				<rect clip-path="url(#SVGID_4_)" width="9.4" height="18.8"/>
				<g enable-background="new    ">
					<path clip-path="url(#SVGID_4_)" fill="#FFFFFF" d="M9.4,1.399h-7c-0.553,0-1,0.448-1,1v14c0,0.553,0.447,1,1,1h7V1.399z"/>
				</g>
			</g>
		</mask>
		<g clip-path="url(#SVGID_4_)" mask="url(#SVGID_5_)">
			<g>
				<defs>
					<rect id="SVGID_6_" width="9.4" height="18.8"/>
				</defs>
				<clipPath id="SVGID_7_">
					<use xlink:href="#SVGID_6_"  overflow="visible"/>
				</clipPath>
				<g clip-path="url(#SVGID_7_)">
					<g>
						<path fill="#2D2D2D" d="M9.4,2.8h-6.6L0,2.4C0,1.075,1.074,0,2.4,0h7V2.8z M2.801,16h6.6v2.8h-7c-1.326,0-2.4-1.074-2.4-2.4
							L2.801,16z M9.4,1.4v16V1.4z M2.801,2.8V16l-0.4,2.8c-1.326,0-2.4-1.074-2.4-2.4v-14C0,1.075,1.074,0,2.4,0L2.801,2.8z"/>
					</g>
				</g>
			</g>
		</g>
		<g clip-path="url(#SVGID_4_)">
			<g>
				<polygon fill="#2D2D2D" points="16.515,10.1 16.515,8.7 5.4,8.7 5.4,10.1 16.515,10.1 				"/>
			</g>
		</g>
	</g>
	<g clip-path="url(#SVGID_2_)">
		<g>
			<polygon fill="#2D2D2D" points="12.588,12.474 15.662,9.398 12.588,6.324 13.435,5.475 17.359,9.398 13.435,13.322 
				12.588,12.474 			"/>
		</g>
	</g>
</g>
</svg>
