<?xml version="1.0" encoding="utf-8"?>
<!-- Generator: Adobe Illustrator 13.0.0, SVG Export Plug-In . SVG Version: 6.00 Build 14948)  -->
<!DOCTYPE svg PUBLIC "-//W3C//DTD SVG 1.1//EN" "http://www.w3.org/Graphics/SVG/1.1/DTD/svg11.dtd">
<svg version="1.1" id="Layer_1" xmlns="http://www.w3.org/2000/svg" xmlns:xlink="http://www.w3.org/1999/xlink" x="0px" y="0px"
	 width="20px" height="20px" viewBox="0 0 20 20" enable-background="new 0 0 20 20" xml:space="preserve">
<g>
	<defs>
		<rect id="SVGID_1_" width="20" height="20"/>
	</defs>
	<clipPath id="SVGID_2_">
		<use xlink:href="#SVGID_1_"  overflow="visible"/>
	</clipPath>
	<path clip-path="url(#SVGID_2_)" fill="#2768FF" d="M10,20L10,20c5.523,0,10-4.477,10-10c0-5.523-4.477-10-10-10
		C4.477,0,0,4.477,0,10C0,15.523,4.477,20,10,20"/>
	<rect x="9.296" y="8.43" clip-path="url(#SVGID_2_)" fill="#FFFFFF" width="1.8" height="5.6"/>
	<rect x="8.203" y="8.43" clip-path="url(#SVGID_2_)" fill="#FFFFFF" width="2" height="1.2"/>
	<rect x="8" y="13.59" clip-path="url(#SVGID_2_)" fill="#FFFFFF" width="4" height="1.2"/>
	<path clip-path="url(#SVGID_2_)" fill="#FFFFFF" d="M9.903,5.04c0.663,0,1.2,0.537,1.2,1.2c0,0.663-0.537,1.2-1.2,1.2
		c-0.663,0-1.2-0.537-1.2-1.2C8.703,5.577,9.24,5.04,9.903,5.04"/>
</g>
</svg>
