<?xml version="1.0" standalone="no"?>
<!DOCTYPE svg PUBLIC "-//W3C//DTD SVG 20010904//EN"
 "http://www.w3.org/TR/2001/REC-SVG-20010904/DTD/svg10.dtd">
<svg version="1.0" xmlns="http://www.w3.org/2000/svg"
 width="1024.000000pt" height="1024.000000pt" viewBox="0 0 1024.000000 1024.000000"
 preserveAspectRatio="xMidYMid meet">

<g transform="translate(0.000000,1024.000000) scale(0.100000,-0.100000)"
fill="#000000" stroke="none">
<path d="M5128 9287 c-44 -14 -101 -55 -708 -516 -250 -190 -543 -412 -650
-493 -721 -546 -795 -604 -817 -643 -29 -51 -29 -109 0 -159 31 -54 76 -76
158 -76 l67 0 6 -37 c3 -21 5 -406 5 -856 l-1 -817 -54 -36 c-72 -48 -200
-185 -277 -297 -64 -92 -151 -243 -262 -452 -147 -279 -248 -435 -353 -546
-122 -130 -209 -178 -394 -217 -53 -12 -119 -32 -146 -46 -119 -60 -179 -199
-152 -353 21 -123 87 -210 197 -260 144 -66 475 -39 688 57 160 72 351 230
482 398 71 91 207 303 237 370 10 23 22 42 26 42 5 0 7 -249 7 -552 -2 -534
-1 -554 18 -586 11 -18 36 -43 55 -55 32 -20 48 -22 200 -22 188 0 228 11 265
75 20 34 20 52 23 933 l3 897 273 0 274 0 25 -34 c15 -18 24 -35 22 -38 -13
-13 -38 -176 -51 -338 -13 -148 -14 -263 -9 -571 l7 -385 -44 -17 c-68 -26
-123 -79 -160 -155 -29 -59 -33 -76 -33 -152 0 -98 19 -145 79 -198 61 -54
122 -65 335 -61 l187 4 77 38 c86 42 141 100 183 192 30 64 54 180 54 256 0
32 2 59 4 59 2 0 29 -25 59 -57 l54 -56 -26 -46 c-23 -41 -26 -57 -26 -141 0
-86 3 -100 28 -143 20 -34 42 -54 80 -74 51 -27 57 -28 250 -31 226 -4 302 5
388 49 l59 29 39 -26 c75 -49 113 -54 402 -54 193 0 288 4 344 15 190 36 321
152 390 344 20 55 21 56 67 62 80 12 160 39 253 87 72 37 108 64 181 136 190
190 277 419 277 731 0 155 -11 230 -50 350 -34 105 -62 160 -112 217 -67 75
-162 90 -221 33 l-27 -26 -6 -197 c-4 -153 -10 -214 -26 -274 -18 -67 -74
-214 -86 -227 -3 -2 -5 685 -5 1527 l0 1532 48 0 c56 0 103 26 133 72 24 40
23 131 -4 171 -17 27 -1091 839 -2003 1515 -196 145 -221 155 -306 129z m469
-493 c219 -163 443 -331 498 -372 55 -42 324 -244 598 -449 273 -205 497 -376
497 -378 0 -3 -900 -5 -2001 -5 l-2000 0 188 142 c103 78 337 254 518 392 182
137 535 405 785 594 250 190 464 353 475 364 11 10 25 16 32 14 7 -3 191 -139
410 -302z m1103 -1709 c0 -173 -2 -315 -5 -315 -3 0 -32 22 -65 48 -176 142
-323 230 -430 258 -120 31 -248 6 -338 -64 l-37 -29 -30 19 c-88 54 -373 118
-528 118 -144 0 -366 -44 -487 -97 -60 -26 -63 -26 -88 -9 -70 45 -138 68
-217 73 -130 9 -228 -24 -383 -129 -89 -60 -324 -238 -334 -252 -4 -6 -8 139
-9 322 -1 182 -2 338 -3 345 -1 6 -1 15 1 20 2 4 668 7 1479 7 l1474 0 0 -315z
m-3140 -116 l0 -422 -30 -61 c-53 -107 -61 -226 -24 -371 9 -33 24 -77 35 -99
14 -30 19 -62 19 -131 l0 -92 -78 -6 c-43 -3 -86 -9 -95 -13 -16 -6 -17 45
-17 805 l0 811 95 0 95 0 0 -421z m3520 -1207 l0 -1628 -28 -27 -29 -27 -27
82 c-16 46 -48 121 -72 169 l-44 85 0 696 0 696 40 60 c87 130 137 304 127
446 -7 114 -36 183 -108 260 l-59 64 0 376 0 376 100 0 100 0 0 -1628z m-1585
1144 c96 -20 154 -40 264 -93 106 -52 99 -53 198 26 134 107 209 91 478 -104
69 -49 180 -128 247 -175 152 -106 181 -145 186 -255 5 -96 -16 -176 -82 -310
-78 -157 -161 -245 -230 -245 -82 0 -172 166 -256 475 -66 243 -88 301 -121
330 -40 33 -81 33 -108 -1 -25 -32 -26 -66 -5 -125 8 -24 33 -112 54 -194 48
-185 97 -331 144 -429 33 -68 36 -82 36 -164 0 -296 -195 -572 -485 -687 -38
-15 -78 -34 -87 -43 -22 -19 -23 -70 -2 -100 37 -53 210 -6 350 94 l77 55 217
-218 c327 -329 422 -469 482 -711 30 -120 33 -396 5 -487 -26 -82 -52 -130
-97 -179 -80 -86 -166 -108 -410 -104 l-155 3 -5 50 c-7 61 -15 75 -44 75 -30
0 -51 -25 -67 -77 -12 -41 -14 -43 -50 -43 -21 0 -41 5 -45 11 -12 20 -5 99
12 135 28 59 44 64 186 64 142 0 158 6 158 64 0 42 -13 52 -92 75 -115 33
-151 60 -194 143 -46 90 -41 210 12 329 41 90 137 169 206 169 39 0 68 27 68
64 0 52 -27 69 -103 64 -165 -10 -311 -151 -371 -359 -9 -31 -23 -143 -31
-250 -23 -323 -55 -424 -150 -484 -45 -28 -55 -30 -149 -30 l-101 0 -3 65 c-3
73 -13 90 -52 90 -37 0 -49 -17 -64 -92 -12 -61 -14 -63 -45 -66 -60 -6 -89
43 -71 119 17 69 62 116 147 155 51 23 76 41 83 58 12 32 29 216 36 406 8 174
3 194 -47 205 -25 6 -36 2 -55 -17 -26 -25 -24 -13 -59 -380 -7 -81 -16 -152
-20 -158 -22 -35 -116 17 -185 103 -65 80 -114 181 -139 286 -22 93 -41 121
-82 121 -25 0 -58 -21 -59 -38 -1 -4 -3 -101 -5 -217 -9 -424 -24 -503 -112
-587 -42 -41 -94 -58 -172 -58 -77 0 -81 3 -81 74 0 54 -23 88 -58 84 -32 -4
-50 -37 -59 -108 -5 -46 -8 -50 -33 -50 -103 0 -103 164 -2 238 23 16 66 37
96 46 34 11 61 26 67 39 8 14 9 60 5 141 -11 209 -9 854 4 954 15 120 32 178
51 173 8 -3 50 -17 95 -32 121 -41 167 -46 193 -20 26 26 28 81 4 109 -10 12
-47 31 -83 42 -252 83 -440 314 -480 589 -17 114 -8 186 34 268 48 97 91 223
141 418 24 94 56 197 70 229 29 66 27 96 -7 134 -52 54 -126 4 -170 -114 -14
-38 -44 -138 -67 -222 -73 -266 -131 -403 -200 -465 -61 -55 -109 -48 -183 30
-127 133 -227 401 -199 529 19 81 55 121 212 232 79 55 187 133 239 172 237
177 373 197 495 71 22 -23 49 -41 61 -41 11 0 61 18 109 40 95 45 225 85 320
100 78 12 300 4 390 -14z m-1706 -1245 c67 -65 144 -95 222 -87 l56 5 11 -76
c10 -62 46 -186 77 -265 7 -17 -7 -18 -209 -18 l-217 0 1 245 c1 135 3 245 5
245 2 0 26 -22 54 -49z m-229 -246 l0 -216 -64 -60 c-118 -110 -207 -243 -436
-654 -125 -224 -188 -324 -268 -429 -215 -280 -461 -417 -778 -433 -148 -7
-184 -1 -231 40 -45 39 -63 82 -63 147 0 103 35 136 178 166 202 41 303 95
447 239 141 140 235 283 440 665 174 324 267 462 386 574 87 82 189 139 289
160 111 24 100 46 100 -199z m3140 -287 c0 -407 -2 -480 -14 -468 -7 8 -39 44
-71 80 -32 36 -113 122 -179 191 -67 69 -127 133 -134 142 -12 14 -8 26 34 89
57 85 106 211 130 330 l17 85 71 -1 c49 -1 80 4 101 15 17 9 33 17 38 18 4 1
7 -216 7 -481z m-3140 -993 l0 -825 -95 0 -95 0 0 698 0 698 53 74 c61 88 130
180 134 180 2 0 3 -371 3 -825z m4051 474 c15 -86 6 -313 -16 -399 -49 -190
-172 -360 -331 -455 -55 -33 -189 -84 -197 -74 -3 2 -7 54 -9 116 l-6 112 67
44 c235 157 379 402 427 728 l18 121 17 -64 c10 -34 23 -93 30 -129z"/>
<path d="M5068 8575 c-87 -33 -168 -111 -199 -192 -52 -137 -13 -300 93 -384
113 -89 255 -104 376 -39 73 38 115 83 148 155 77 167 3 364 -166 443 -67 32
-193 40 -252 17z m166 -189 c102 -43 126 -165 46 -241 -41 -39 -128 -47 -178
-16 -98 62 -95 197 8 249 51 26 78 27 124 8z"/>
<path d="M4702 6194 c-80 -40 -115 -159 -73 -249 30 -64 64 -90 121 -90 81 0
133 65 134 170 2 128 -91 214 -182 169z"/>
<path d="M5760 6199 c-67 -27 -104 -97 -98 -184 9 -140 132 -210 217 -123 40
41 54 87 49 158 -4 58 -32 115 -68 137 -26 17 -74 23 -100 12z"/>
<path d="M5205 5943 c-91 -10 -162 -49 -190 -103 -19 -37 -19 -113 -1 -148 28
-54 96 -102 164 -117 28 -6 32 -10 32 -39 0 -74 -89 -146 -180 -146 -81 1
-130 34 -218 149 -42 56 -116 30 -114 -39 2 -66 95 -178 186 -222 l45 -21 6
-76 c21 -252 127 -385 314 -399 130 -9 236 44 299 148 43 72 61 136 69 240 l6
86 43 18 c55 22 129 88 166 145 51 82 30 156 -43 149 -27 -2 -39 -13 -73 -63
-31 -44 -55 -66 -95 -87 -128 -67 -281 -5 -281 114 0 35 2 37 49 53 58 19 123
72 141 115 7 17 11 53 8 85 -7 89 -64 134 -195 154 -71 11 -81 11 -138 4z m30
-752 c19 -81 71 -77 84 6 l6 38 64 3 c79 4 91 -5 91 -73 0 -183 -136 -300
-275 -236 -22 10 -50 29 -62 42 -50 55 -85 187 -64 242 11 27 13 28 78 25 l67
-3 11 -44z"/>
<path d="M3075 2705 c-248 -45 -425 -262 -425 -520 1 -348 303 -595 642 -524
180 38 353 203 396 379 49 199 0 384 -139 523 -86 86 -178 131 -299 146 -97
13 -85 13 -175 -4z m218 -239 c56 -23 118 -86 149 -151 34 -72 38 -171 11
-251 -23 -68 -102 -145 -172 -169 -70 -23 -179 -17 -237 13 -95 49 -158 162
-158 284 0 57 5 77 34 134 40 77 86 118 162 146 60 21 153 19 211 -6z"/>
<path d="M4285 2710 c-220 -30 -382 -175 -436 -390 -63 -250 54 -514 276 -620
212 -101 501 -47 628 118 l27 36 0 187 c0 160 -2 190 -16 204 -24 24 -375 18
-399 -6 -25 -24 -37 -94 -25 -138 13 -50 40 -61 145 -61 l85 0 0 -39 c0 -112
-176 -168 -323 -103 -190 84 -238 360 -89 509 52 53 114 76 197 76 80 0 140
-19 195 -63 21 -16 44 -30 52 -30 15 0 127 92 141 116 11 20 -17 67 -61 103
-104 82 -255 120 -397 101z"/>
<path d="M1660 2680 c-19 -19 -20 -33 -20 -504 l0 -485 22 -15 c18 -13 56 -16
204 -16 270 0 376 33 500 155 244 240 185 685 -110 828 -92 45 -169 57 -383
57 -180 0 -194 -1 -213 -20z m465 -234 c209 -99 212 -420 4 -527 -36 -18 -65
-23 -156 -27 l-113 -5 0 292 0 291 108 0 c92 0 114 -4 157 -24z"/>
<path d="M5051 2681 c-21 -21 -21 -25 -21 -511 0 -564 -12 -510 110 -510 114
0 110 -6 110 175 l0 155 118 0 c140 0 216 17 289 65 96 63 143 155 145 279 1
131 -47 235 -137 298 -75 52 -120 60 -366 65 -221 5 -227 5 -248 -16z m438
-219 c49 -24 74 -63 75 -114 1 -61 -21 -99 -74 -125 -37 -19 -60 -23 -142 -23
l-98 0 0 140 0 140 103 0 c77 0 110 -4 136 -18z"/>
<path d="M6162 2682 c-19 -19 -68 -153 -238 -650 -57 -167 -104 -317 -104
-332 0 -16 7 -30 16 -34 30 -11 170 -6 188 7 9 7 31 53 49 102 l32 90 187 3
186 2 27 -82 c43 -131 40 -128 145 -128 88 0 120 11 120 43 0 6 -73 225 -161
486 -105 307 -169 482 -182 494 -29 26 -239 25 -265 -1z m192 -426 c31 -93 56
-170 56 -172 0 -2 -52 -4 -116 -4 -87 0 -115 3 -112 13 7 29 112 336 114 334
1 -1 27 -78 58 -171z"/>
<path d="M6980 2694 c-40 -16 -40 -22 -40 -514 0 -414 2 -478 16 -498 14 -20
24 -22 99 -22 118 0 115 -5 115 196 l0 165 52 -3 51 -3 99 -160 c55 -88 107
-168 115 -177 24 -27 193 -26 216 0 10 10 17 23 17 28 0 11 -71 125 -159 259
-47 71 -51 81 -36 90 81 48 108 70 135 106 45 62 64 138 57 227 -10 134 -83
236 -203 282 -55 22 -76 24 -289 27 -126 1 -237 0 -245 -3z m440 -229 c63 -33
81 -138 34 -194 -33 -39 -77 -51 -191 -51 l-93 0 0 130 0 130 110 0 c80 0 119
-4 140 -15z"/>
<path d="M7937 2682 c-15 -17 -17 -67 -17 -510 0 -475 1 -492 19 -502 25 -13
161 -13 181 0 12 7 15 40 17 177 2 164 12 218 37 210 5 -2 74 -88 153 -192 79
-104 149 -193 156 -197 18 -11 195 -10 218 2 28 15 23 49 -14 97 -17 24 -95
125 -171 225 -76 101 -149 194 -161 208 l-23 25 100 115 c268 310 280 327 239
350 -25 13 -186 13 -211 0 -17 -9 -206 -231 -283 -333 -21 -27 -37 -45 -37
-40 -1 4 0 83 0 175 1 206 0 208 -113 208 -59 0 -77 -4 -90 -18z"/>
</g>
</svg>
