<svg xmlns="http://www.w3.org/2000/svg" xmlns:xlink="http://www.w3.org/1999/xlink" xml:space="preserve" width="86" height="85.541"><path fill="#86D678" d="M72.982 5.47H13.351l21.671 37.535-21.671 37.536h59.631l-21.67-37.536z"/><defs><path id="a" d="M0 0h86v85.541H0z"/></defs><clipPath id="b"><use xlink:href="#a" overflow="visible"/></clipPath><path fill="#00A808" d="m39.488 32.733 2.407 4.168c.565.98 1.979.98 2.543 0l2.407-4.168a1.469 1.469 0 0 0-1.272-2.203H40.76a1.469 1.469 0 0 0-1.272 2.203M35.833 57.53l-4.314 7.472c-1.217 2.106.303 4.739 2.735 4.739h17.824c2.433 0 3.952-2.633 2.735-4.739l-4.314-7.472a3.154 3.154 0 0 0-2.735-1.579H38.57a3.16 3.16 0 0 0-2.737 1.579M81 10H5A5 5 0 1 1 5 0h76a5 5 0 1 1 0 10M81 85.541H5a5 5 0 1 1 0-10h76a5 5 0 1 1 0 10" clip-path="url(#b)"/></svg>