<svg xmlns="http://www.w3.org/2000/svg" xmlns:xlink="http://www.w3.org/1999/xlink" xml:space="preserve" width="80" height="86.26"><defs><path id="a" d="M0 0h80v86.26H0z"/></defs><clipPath id="b"><use xlink:href="#a" overflow="visible"/></clipPath><path fill="#FFAC27" d="M66.11 86.26H13.89C6.219 86.26 0 80.042 0 72.371V24.78c0-7.671 6.219-13.89 13.89-13.89h52.22c7.671 0 13.89 6.219 13.89 13.89v47.59c0 7.672-6.219 13.89-13.89 13.89" clip-path="url(#b)"/><path fill="#FFCF64" d="M80 37.192H0V24.781c0-7.672 6.219-13.89 13.89-13.89h52.22c7.671 0 13.89 6.218 13.89 13.89v12.411z" clip-path="url(#b)"/><path fill="#FFAC27" d="M17.097 22.183a5 5 0 0 1-5-5V5a5 5 0 0 1 10 0v12.183a5 5 0 0 1-5 5M62.903 22.183c-2.763 0-5-2.238-5-5V5a5 5 0 1 1 10 0v12.183a5 5 0 0 1-5 5" clip-path="url(#b)"/></svg>