<?xml version="1.0" encoding="utf-8"?>
<!-- Generator: Adobe Illustrator 13.0.0, SVG Export Plug-In  -->
<!DOCTYPE svg PUBLIC "-//W3C//DTD SVG 1.1//EN" "http://www.w3.org/Graphics/SVG/1.1/DTD/svg11.dtd" [
	<!ENTITY ns_flows "http://ns.adobe.com/Flows/1.0/">
]>
<svg version="1.1"
	 xmlns="http://www.w3.org/2000/svg" xmlns:xlink="http://www.w3.org/1999/xlink" xmlns:a="http://ns.adobe.com/AdobeSVGViewerExtensions/3.0/"
	 x="0px" y="0px" width="134px" height="142px" viewBox="293 72.89 134 142" style="enable-background:new 293 72.89 134 142;"
	 xml:space="preserve">
<defs>
</defs>
<g>
	<defs>
		<rect id="SVGID_1_" width="481.89" height="481.89"/>
	</defs>
	<clipPath id="SVGID_2_">
		<use xlink:href="#SVGID_1_"  style="display:none;overflow:visible;"/>
	</clipPath>
	<path class="st1" d="M359.898,73.625c-36.82,0-66.668,27.609-66.668,61.666c0,25.153,10.534,37.16,24.963,48.106l0.068,0.03v29.518
		c0,1.393,1.588,2.191,2.707,1.361l25.281-18.78l0.544,0.236c4.238,0.781,8.619,1.194,13.104,1.194
		c36.819,0,66.667-27.609,66.667-61.665C426.565,101.234,396.718,73.625,359.898,73.625 M337.55,150.917
		c6.536,0,12.125-3.912,13.806-9.956h9.667c-2.364,11.632-11.415,19.255-23.473,19.255c-14.012,0-25.122-10.45-25.122-24.995
		s11.11-24.994,25.122-24.994c12.179,0,21.293,7.776,23.544,19.607h-9.64c-1.466-6.433-7.247-10.442-13.904-10.442
		c-9.421,0-15.688,6.721-15.688,15.829C321.862,144.329,328.987,150.917,337.55,150.917 M401.24,159.256h-8.858v-19.982
		c0-4.601-2.678-7.073-6.798-7.073c-4.601,0-7.553,2.815-7.553,8.514v18.541h-8.859v-48.874h8.859v18.385
		c2.128-3.227,5.562-4.806,10.229-4.806c3.778,0,6.869,1.235,9.271,3.775c2.473,2.541,3.708,5.975,3.708,10.438V159.256z"/>
	<line class="st0" x1="361.094" y1="341.999" x2="361.094" y2="374.914"/>
	<line class="st0" x1="377.553" y1="358.456" x2="344.636" y2="358.456"/>
</g>
</svg>
