<?xml version="1.0" encoding="utf-8"?>
<!-- Generator: Adobe Illustrator 13.0.0, SVG Export Plug-In . SVG Version: 6.00 Build 14948)  -->
<!DOCTYPE svg PUBLIC "-//W3C//DTD SVG 1.1//EN" "http://www.w3.org/Graphics/SVG/1.1/DTD/svg11.dtd">
<svg version="1.1" id="Layer_1" xmlns="http://www.w3.org/2000/svg" xmlns:xlink="http://www.w3.org/1999/xlink" x="0px" y="0px"
	 width="21.922px" height="19.253px" viewBox="0 0 21.922 19.253" enable-background="new 0 0 21.922 19.253" xml:space="preserve">
<g>
	<defs>
		<rect id="SVGID_1_" y="0" width="21.922" height="19.252"/>
	</defs>
	<clipPath id="SVGID_2_">
		<use xlink:href="#SVGID_1_"  overflow="visible"/>
	</clipPath>
	<g clip-path="url(#SVGID_2_)">
		<defs>
			<rect id="SVGID_3_" width="21.922" height="19.253"/>
		</defs>
		<clipPath id="SVGID_4_">
			<use xlink:href="#SVGID_3_"  overflow="visible"/>
		</clipPath>
		<defs>
			<filter id="Adobe_OpacityMaskFilter" filterUnits="userSpaceOnUse" x="0" y="0" width="21.922" height="19.252">
				<feColorMatrix  type="matrix" values="1 0 0 0 0  0 1 0 0 0  0 0 1 0 0  0 0 0 1 0"/>
			</filter>
		</defs>
		<mask maskUnits="userSpaceOnUse" x="0" y="0" width="21.922" height="19.252" id="SVGID_5_">
			<g filter="url(#Adobe_OpacityMaskFilter)">
				<g>
					<defs>
						<rect id="SVGID_6_" y="0" width="21.922" height="19.252"/>
					</defs>
					<clipPath id="SVGID_7_" clip-path="url(#SVGID_4_)">
						<use xlink:href="#SVGID_6_"  overflow="visible"/>
					</clipPath>
					<rect x="-0.25" y="-0.167" clip-path="url(#SVGID_7_)" width="22.421" height="19.42"/>
					<g enable-background="new    ">
						<g>
							<defs>
								<rect id="SVGID_8_" x="-0.25" y="-0.167" width="22.421" height="19.42"/>
							</defs>
							<clipPath id="SVGID_9_" clip-path="url(#SVGID_7_)">
								<use xlink:href="#SVGID_8_"  overflow="visible"/>
							</clipPath>
							<rect x="-1.039" y="-1.497" clip-path="url(#SVGID_9_)" fill="#FFB724" width="24" height="24"/>
						</g>
					</g>
				</g>
			</g>
		</mask>
		<g clip-path="url(#SVGID_4_)" mask="url(#SVGID_5_)">
			<g>
				<defs>
					<rect id="SVGID_10_" y="0" width="21.922" height="19.252"/>
				</defs>
				<clipPath id="SVGID_11_">
					<use xlink:href="#SVGID_10_"  overflow="visible"/>
				</clipPath>
				<path clip-path="url(#SVGID_11_)" fill="#FFB724" d="M10.096,0.503c0.384-0.67,1.347-0.67,1.732,0l9.958,17.25
					c0.386,0.67-0.096,1.5-0.865,1.5H1.001c-0.77,0-1.251-0.83-0.866-1.5L10.096,0.503z"/>
			</g>
		</g>
	</g>
	<rect x="9.962" y="6.913" clip-path="url(#SVGID_2_)" fill="#FFFFFF" width="2" height="5.6"/>
	<rect x="9.962" y="13.713" clip-path="url(#SVGID_2_)" fill="#FFFFFF" width="2" height="2"/>
</g>
</svg>
