<?xml version="1.0" encoding="UTF-8"?>
<svg id="_레이어_2" data-name="레이어_2" xmlns="http://www.w3.org/2000/svg" viewBox="0 0 16.18 16.46">
  <defs>
    <style>
      .cls-1 {
        fill: #fff;
      }
    </style>
  </defs>
  <g id="_x40_Content">
    <g id="_공유_x26_인쇄" data-name="공유_x26_인쇄">
      <g id="link">
        <path class="cls-1" d="M10.15,4.84l-5.39,5.49c-.35.36-.35.94,0,1.29.18.18.41.27.64.27s.46-.09.64-.27l5.39-5.49c.35-.36.35-.94,0-1.29-.35-.36-.92-.36-1.27,0ZM14.6,1.6c-2.1-2.14-5.52-2.14-7.67.05l-.42.49c-.32.38-.28.96.09,1.29.38.33.94.29,1.27-.1l.37-.44c1.4-1.43,3.68-1.43,5.08,0,.68.69,1.05,1.61,1.05,2.59s-.37,1.9-1.01,2.54l-.48.42c-.37.33-.41.91-.09,1.29.18.21.43.31.68.31.21,0,.42-.07.59-.22l.53-.47c1.02-1.04,1.58-2.42,1.58-3.88s-.56-2.85-1.58-3.88ZM8.26,13.17l-.31.43c-1.42,1.38-3.69,1.37-5.1-.05-1.4-1.41-1.41-3.72-.04-5.14l.47-.42c.37-.33.41-.91.08-1.29-.33-.38-.9-.41-1.27-.08l-.47.42s-.07.06-.08.08c-2.08,2.14-2.06,5.61.04,7.73,1.06,1.07,2.45,1.6,3.83,1.6s2.78-.53,3.84-1.6c.03-.03.06-.07.09-.1l.36-.49c.3-.41.21-.98-.19-1.28-.4-.3-.96-.22-1.26.19Z"/>
      </g>
    </g>
  </g>
</svg>